<svg width="10" height="16" viewBox="0 0 10 16" fill="none" xmlns="http://www.w3.org/2000/svg">
<path d="M6.95738 7.99903L0.909004 1.95758C0.8026 1.8511 0.718194 1.72468 0.660608 1.58556C0.603024 1.44643 0.573385 1.29731 0.573385 1.14672C0.573385 0.996133 0.603024 0.847017 0.660608 0.70789C0.718194 0.568763 0.8026 0.44235 0.909004 0.335867C1.01541 0.229384 1.14173 0.144917 1.28075 0.0872884C1.41978 0.0296601 1.56878 0 1.71926 0C1.86973 0 2.01874 0.0296601 2.15776 0.0872884C2.29679 0.144917 2.42311 0.229384 2.52951 0.335867L9.37673 7.18817C9.48369 7.29434 9.56859 7.42065 9.62653 7.55982C9.68447 7.69899 9.71429 7.84826 9.71429 7.99903C9.71429 8.14979 9.68447 8.29906 9.62653 8.43823C9.56859 8.5774 9.48369 8.70371 9.37673 8.80988L2.52951 15.6622C2.42342 15.7692 2.2972 15.8542 2.15814 15.9122C2.01907 15.9701 1.86991 16 1.71926 16C1.5686 16 1.41944 15.9701 1.28038 15.9122C1.14131 15.8542 1.01509 15.7692 0.909004 15.6622C0.802041 15.556 0.71714 15.4297 0.659203 15.2905C0.601265 15.1514 0.571437 15.0021 0.571437 14.8513C0.571437 14.7006 0.601265 14.5513 0.659203 14.4121C0.71714 14.273 0.802041 14.1466 0.909004 14.0405L6.95738 7.99903Z" fill="white"/>
</svg>
