<svg width="10" height="16" viewBox="0 0 10 16" fill="none" xmlns="http://www.w3.org/2000/svg">
<path d="M3.04262 7.99903L9.091 1.95758C9.1974 1.8511 9.28181 1.72468 9.33939 1.58556C9.39698 1.44643 9.42661 1.29731 9.42661 1.14672C9.42661 0.996133 9.39698 0.847017 9.33939 0.70789C9.28181 0.568763 9.1974 0.44235 9.091 0.335867C8.98459 0.229384 8.85827 0.144917 8.71925 0.0872884C8.58022 0.0296601 8.43122 0 8.28074 0C8.13027 0 7.98126 0.0296601 7.84224 0.0872884C7.70321 0.144917 7.57689 0.229384 7.47049 0.335867L0.623271 7.18817C0.516308 7.29434 0.43141 7.42065 0.373472 7.55982C0.315535 7.69899 0.285706 7.84826 0.285706 7.99903C0.285706 8.14979 0.315535 8.29906 0.373472 8.43823C0.43141 8.5774 0.516308 8.70371 0.623271 8.80988L7.47049 15.6622C7.57658 15.7692 7.7028 15.8542 7.84186 15.9122C7.98093 15.9701 8.13009 16 8.28074 16C8.4314 16 8.58056 15.9701 8.71962 15.9122C8.85869 15.8542 8.98491 15.7692 9.091 15.6622C9.19796 15.556 9.28286 15.4297 9.3408 15.2905C9.39874 15.1514 9.42856 15.0021 9.42856 14.8513C9.42856 14.7006 9.39874 14.5513 9.3408 14.4121C9.28286 14.273 9.19796 14.1466 9.091 14.0405L3.04262 7.99903Z" fill="white"/>
</svg>
